<svg width="1486" height="1481" viewBox="0 0 1486 1481" fill="none" xmlns="http://www.w3.org/2000/svg">
<circle cx="1014" cy="1009" r="462" stroke="#57bbd7" stroke-width="20"/>
<path d="M1142.5 1052L1135.33 1047.44L1142.5 1052ZM1155.93 563.964C1151.77 561.793 1146.64 563.406 1144.46 567.568C1142.29 571.73 1143.91 576.864 1148.07 579.036L1155.93 563.964ZM598.396 1227.93C672.582 1237.64 784.386 1235.03 890.349 1210.19C996.001 1185.42 1097.91 1138.05 1149.67 1056.56L1135.33 1047.44C1087.18 1123.22 990.755 1169.18 886.468 1193.64C782.492 1218.02 672.751 1220.52 600.604 1211.07L598.396 1227.93ZM1149.67 1056.56C1205.19 969.18 1213.14 849.751 1204.84 751.782C1200.68 702.61 1192.38 658.366 1183.62 625.543C1179.25 609.152 1174.72 595.444 1170.46 585.324C1168.34 580.282 1166.21 575.933 1164.09 572.527C1162.22 569.511 1159.57 565.86 1155.93 563.964L1148.07 579.036C1147.31 578.64 1147.94 578.727 1149.65 581.485C1151.11 583.853 1152.86 587.314 1154.79 591.914C1158.64 601.079 1162.94 613.989 1167.19 629.925C1175.69 661.759 1183.82 705.015 1187.91 753.218C1196.11 849.999 1187.81 964.82 1135.33 1047.44L1149.67 1056.56Z" fill="#57bbd7"/>
<line x1="241.81" y1="1213.11" x2="483.056" y2="1159.35" stroke="#57bbd7" stroke-width="19"/>
<line x1="0.100636" y1="1029.5" x2="432.981" y2="1034.09" stroke="#57bbd7" stroke-width="19"/>
<line x1="493.342" y1="129.454" x2="700.508" y2="509.57" stroke="#57bbd7" stroke-width="19"/>
<line x1="985.889" y1="0.162191" x2="978.498" y2="433.003" stroke="#57bbd7" stroke-width="19"/>
<line x1="1171.35" y1="217.671" x2="1127.19" y2="464.886" stroke="#57bbd7" stroke-width="19"/>
<line x1="781.248" y1="213.828" x2="839.248" y2="460.828" stroke="#57bbd7" stroke-width="19"/>
<line x1="410.221" y1="434.827" x2="575.073" y2="627.692" stroke="#57bbd7" stroke-width="19"/>
<line x1="139.738" y1="528.766" x2="457.738" y2="711.766" stroke="#57bbd7" stroke-width="19"/>
<line x1="192.378" y1="795.6" x2="404.484" y2="826.699" stroke="#57bbd7" stroke-width="19"/>
</svg>
